<?xml version="1.0" encoding="UTF-8"?>
<svg width="1200pt" height="1200pt" version="1.1" viewBox="0 0 1200 1200" xmlns="http://www.w3.org/2000/svg">
 <path d="m600 315.55c-120.47 0-218.12 97.668-218.12 218.13 0 84.523 107.4 241.3 171.46 327.31 5.4102 7.2773 12.445 13.188 20.547 17.258 8.1016 4.0703 17.043 6.1914 26.109 6.1914s18.008-2.1211 26.105-6.1914c8.1055-4.0703 15.137-9.9805 20.551-17.258 64.078-86.012 171.48-242.79 171.48-327.31-0.007813-120.46-97.664-218.13-218.14-218.13zm0 359.07c-27.875 0-55.125-8.2656-78.301-23.754-23.176-15.492-41.238-37.5-51.906-63.254-10.668-25.754-13.457-54.094-8.0156-81.434 5.4375-27.336 18.863-52.449 38.574-72.16 19.711-19.711 44.824-33.133 72.164-38.57 27.34-5.4336 55.68-2.6445 81.43 8.0273 25.754 10.668 47.766 28.73 63.246 51.91 15.488 23.176 23.754 50.426 23.754 78.301-0.042968 37.367-14.91 73.188-41.332 99.613-26.426 26.418-62.246 41.277-99.613 41.316z"/>
 <path d="m637.12 509.94c-0.51563 0-1.0273-0.050781-1.5391-0.15625v95.617h5.9727v-8.3047c-0.007812-3.4375 0.92969-6.8125 2.6992-9.7617 1.7695-2.9453 4.3086-5.3555 7.3438-6.9648l1.5703-0.83594 1.5664 0.83594c3.043 1.6094 5.582 4.0195 7.3516 6.9648 1.7695 2.9492 2.707 6.3242 2.6992 9.7617v8.3047h5.375v-95.621c-0.50391 0.10547-1.0195 0.16016-1.5352 0.15625zm25.156 30.516h-18.809v-9.4453c0-3.2188 0.875-6.375 2.5391-9.1328 1.6523-2.7578 4.0312-5.0156 6.8672-6.5273 2.8398 1.5117 5.2148 3.7695 6.8711 6.5273s2.5312 5.9141 2.5312 9.1328z"/>
 <path d="m665.25 468.79-9.5469-6.0352c-0.80859-0.51172-1.7461-0.78516-2.707-0.78516-0.95703 0-1.8945 0.27344-2.7031 0.78516l-9.5469 6.0352c-3.6914 2.3281-6.3594 5.9648-7.4805 10.18-1.125 4.2148-0.61328 8.6953 1.4219 12.551l1.3711 2.5938c0.34766-0.050781 0.70312-0.074219 1.0625-0.074219h31.5c0.4375 0 0.87109 0.035156 1.2969 0.10938l1.3906-2.6289c2.0352-3.8555 2.5469-8.3398 1.418-12.551-1.1211-4.2148-3.793-7.8516-7.4766-10.18z"/>
 <path d="m668.62 497.38h-31.5c-2.3203 0-4.207 1.8828-4.207 4.2031v0.80859c0 2.3242 1.8867 4.207 4.207 4.207h31.5c2.3242 0 4.207-1.8828 4.207-4.207v-0.80859c0-2.3203-1.8828-4.2031-4.207-4.2031z"/>
 <path d="m652.87 519.27c-1.8789 1.3281-3.4062 3.0859-4.457 5.1289-1.0547 2.043-1.6094 4.3086-1.6016 6.6094v6.0977h12.121v-6.0977c0-2.3008-0.54688-4.5664-1.6055-6.6094-1.0547-2.043-2.5781-3.8008-4.457-5.1289z"/>
 <path d="m626.59 540.23h-53.414c-0.73828 0-1.4727 0.14844-2.1562 0.42969-0.68359 0.28516-1.3047 0.69922-1.8281 1.2227-0.52344 0.52344-0.9375 1.1445-1.2227 1.8281-0.28125 0.68359-0.42969 1.418-0.42969 2.1562v59.535h12.797v-16.273c-0.003906-6.1523 1.6641-12.188 4.832-17.461 3.168-5.2734 7.7148-9.5859 13.148-12.469l1.5703-0.83594 1.5703 0.83594c5.4336 2.8828 9.9766 7.1953 13.145 12.469 3.168 5.2734 4.8359 11.312 4.832 17.461v16.273h12.789v-59.535c0-0.74219-0.14453-1.4727-0.42578-2.1562-0.28125-0.68359-0.69922-1.3047-1.2227-1.8281-0.52344-0.52344-1.1445-0.94141-1.832-1.2227-0.68359-0.28516-1.4141-0.42969-2.1523-0.42969z"/>
 <path d="m579.12 537.25h41.516l1.6133-3.0469c2.4844-4.707 3.1094-10.184 1.7344-15.332-1.3672-5.1445-4.6289-9.5859-9.1367-12.434l-11.664-7.375c-0.98828-0.625-2.1367-0.95703-3.3047-0.95703-1.1719 0-2.3203 0.33203-3.3086 0.95703l-11.668 7.375c-4.5 2.8477-7.7617 7.2891-9.1367 12.434-1.3711 5.1484-0.75 10.625 1.7383 15.332z"/>
 <path d="m599.88 562.15c-4.8945 2.6016-8.9883 6.4883-11.844 11.242-2.8516 4.7539-4.3594 10.191-4.3594 15.734v16.273h32.402v-16.273c0-5.543-1.5039-10.98-4.3594-15.734s-6.9492-8.6406-11.84-11.242z"/>
 <path d="m653.16 583.32c-2.5 1.332-4.5898 3.3164-6.0469 5.7422-1.457 2.4258-2.2266 5.2031-2.2266 8.0352v8.3047h16.551v-8.3047c0-2.832-0.76953-5.6094-2.2266-8.0352-1.457-2.4258-3.5547-4.4102-6.0508-5.7422z"/>
 <path d="m531.12 509.94c-0.51562 0-1.0312-0.050781-1.5391-0.15625v95.617h5.9688v-8.3047c-0.003907-3.4375 0.92969-6.8125 2.6992-9.7578 1.7695-2.9492 4.3125-5.3594 7.3477-6.9688l1.5703-0.83594 1.5742 0.83594c3.0352 1.6094 5.5742 4.0195 7.3438 6.9688 1.7695 2.9453 2.7031 6.3203 2.6992 9.7578v8.3047h5.3789v-95.621c-0.50781 0.10547-1.0234 0.16016-1.5391 0.15625zm25.152 30.516h-18.805v-9.4453c0-3.2188 0.875-6.375 2.5312-9.1328s4.0312-5.0156 6.8711-6.5273c2.8398 1.5117 5.2188 3.7695 6.8711 6.5273 1.6562 2.7578 2.5312 5.9141 2.5312 9.1328z"/>
 <path d="m559.26 468.79-9.5469-6.0352c-0.80859-0.51172-1.75-0.78516-2.707-0.78516-0.95703 0-1.8984 0.27344-2.707 0.78516l-9.5469 6.0352c-3.6875 2.3281-6.3594 5.9648-7.4805 10.18-1.1211 4.2148-0.61328 8.6953 1.4219 12.551l1.3711 2.5938c0.35156-0.050781 0.70703-0.074219 1.0625-0.074219h31.504c0.43359 0 0.86719 0.035156 1.293 0.10938l1.3906-2.6289c2.0352-3.8555 2.543-8.3398 1.4219-12.551-1.125-4.2148-3.793-7.8477-7.4766-10.18z"/>
 <path d="m562.63 497.38h-31.504c-2.3203 0-4.2031 1.8828-4.2031 4.2031v0.80859c0 2.3242 1.8828 4.207 4.2031 4.207h31.504c2.3242 0 4.2031-1.8828 4.2031-4.207v-0.80859c0-2.3203-1.8789-4.2031-4.2031-4.2031z"/>
 <path d="m546.88 519.27c-1.8789 1.3281-3.4062 3.0859-4.4609 5.1289-1.0547 2.043-1.6055 4.3086-1.6016 6.6094v6.0977h12.121v-6.0977c0.003906-2.3008-0.54688-4.5664-1.6016-6.6094-1.0547-2.043-2.582-3.8008-4.457-5.1289z"/>
 <path d="m547.17 583.32c-2.5 1.332-4.5898 3.3164-6.0469 5.7422-1.457 2.4258-2.2266 5.2031-2.2266 8.0352v8.3047h16.547v-8.3047c0-2.832-0.76953-5.6094-2.2266-8.0352-1.4609-2.4258-3.5508-4.4102-6.0469-5.7422z"/>
</svg>
